<svg id="Lager_1" data-name="Lager 1" xmlns="http://www.w3.org/2000/svg" viewBox="0 0 352.114 352.114">
<defs>
    <style>
        .cls-1 {
        fill: #222;
        }
        @media (prefers-color-scheme: dark) {
        .cls-1 {
            fill: #fff;
        }
        }
        
    </style>
</defs>
    <title>AFRY-Logotype-Horizontal_White</title>
    <!-- <polygon class="cls-1" points="685.397 263.478 685.397 89.262 821.254 89.262 821.254 109.503 710.802 109.503 706.78 113.526 706.78 167.867 710.802 171.89 800.096 171.89 800.096 190.603 710.802 190.603 706.78 194.626 706.78 263.478 685.397 263.478"/> -->
    <!-- <polygon class="cls-1" points="610.578 263.478 587.554 211.235 518.684 211.235 527.047 192.528 579.293 192.528 545.614 118.12 539.666 118.128 474.862 263.478 452.878 263.478 533.094 89.262 553.806 89.262 633.901 263.478 610.578 263.478"/> -->
    <!-- <path class="cls-1" d="M1017.045,263.4,967.2,190.591H919.054V171.877h60.914c19.218,0,34.271-14.087,34.271-32.108a30.323,30.323,0,0,0-8.524-20.91c-9.652-9.656-21.4-10.959-31.618-10.959H904.356l-4.022,4.023V263.4H878.952V89.187H974.1c21.3,0,37.053,5.669,48.168,17.328a47.983,47.983,0,0,1,13.089,33.522c0,22.725-15.283,40.966-39.885,47.651-.564.174-2.134.628-4.633,1.134l-1.384.282,51.753,74.3Z" transform="translate(-0.478 0.075)"/> -->
    <!-- <polygon class="cls-1" points="1146.964 263.478 1146.964 192.283 1074.698 89.262 1099.237 89.262 1155.267 169.973 1160.236 169.973 1216.074 89.262 1240.612 89.262 1168.346 192.283 1168.346 263.478 1146.964 263.478"/> -->
    <path class="cls-1" d="M310.678,61.962a176.054,176.054,0,1,0-20.122,248.162A176.054,176.054,0,0,0,310.678,61.962ZM73.618,54.9c60.444-51.377,148.53-49.559,206.774.791L25.668,126.2A157.955,157.955,0,0,1,73.618,54.9Zm-18.163,224A158.5,158.5,0,0,1,18.777,157.6L104.5,201.384l13.856-11.808L31.488,145.132c.173-1.372.187-1.48.361-2.852L278.776,73.928l1.925,2.264L122.546,210.623l46.718,124.019A158.5,158.5,0,0,1,55.455,278.9Zm128.159,45.206L142.842,215.871,291.8,89.255l1.924,2.264-107.24,232.69Zm95.839-27.044A157.957,157.957,0,0,1,201.36,332.9L311.987,92.862C352.3,158.458,339.9,245.685,279.453,297.062Z" />
</svg>